PathFileType	4	(X/Y/Z)	C:/Users/beibeiliu/ov580/test_trc/User2\sequence.36_training_dense_left.trc
DataRate	CameraRate	NumFrames	NumMarkers	Units	OrigDataRate	OrigDataStartFrame	OrigNumFrames
120	120	7	19	mm	120	34	66
Frame#	Time	ThumbCMC			ThumbMCP			ThumbIP			ThumbTip			IndexMCP			IndexPIP			IndexTip			MiddleMCP			MiddlePIP			MiddleTip			RingMCP			RingPIP			RingTip			PinkyMCP			PinkyPIP			PinkyTip			BackHand1			BackHand2			BackHand3	
		X0	Y0	Z0	X1	Y1	Z1	X2	Y2	Z2	X3	Y3	Z3	X4	Y4	Z4	X5	Y5	Z5	X6	Y6	Z6	X7	Y7	Z7	X8	Y8	Z8	X9	Y9	Z9	X10	Y10	Z10	X11	Y11	Z11	X12	Y12	Z12	X13	Y13	Z13	X14	Y14	Z14	X15	Y15	Z15	X16	Y16	Z16	X17	Y17	Z17	X18	Y18	Z18	
33	0.275	-163.965	17.6503	-23.8349	-133.283	33.0191	-39.5274	-106.305	43.661	-62.8428	-90.1317	39.5564	-79.6203	-163.001	15.2113	-104.449	-133.582	21.5371	-117.734	-101.187	19.7604	-109.679	-170.287	-7.3425	-119.293	-149.091	-1.04036	-144.322	-119.231	6.56385	-156.99	-164.026	-32.7602	-118.259	-147.421	-30.3141	-140.018	-119.478	-19.3814	-156.566	-152.148	-61.3244	-104.943	-137.568	-57.4199	-127.665	-122.005	-57.597	-147.471	-185.606	-43.8906	-61.0674	-190.849	-50.505	-30.5957	-195.895	-16.5203	-42.1653	
34	0.283333	-163.721	16.1598	-23.6996	-131.802	32.9836	-36.556	-107.054	41.9958	-57.6633	-89.3028	38.6023	-79.6833	-165.595	18.2421	-103.165	-132.512	22.9003	-118.575	-105.584	20.3802	-114.69	-172.369	-5.6072	-120.029	-148.613	0.131631	-145.796	-116.237	8.1487	-158.208	-166.365	-34.5507	-116.955	-149.119	-26.0154	-142.444	-121.128	-17.9914	-157.529	-154.528	-59.4536	-99.38	-139.582	-57.4018	-129.05	-123.97	-52.4194	-149.046	-186.425	-42.8041	-60.2363	-191.504	-51.0345	-26.1519	-195.701	-16.2269	-41.6485	
35	0.291667	-162.31	17.6339	-20.9202	-131.222	31.6047	-40.1538	-107.232	39.2712	-58.8586	-88.3503	36.1336	-79.9718	-165.428	21.2419	-103.613	-132.609	28.3501	-116.817	-105.805	23.1331	-113.224	-172.408	-7.69321	-120.272	-149.794	3.38695	-144.387	-119.465	10.5588	-157.896	-167.443	-33.4717	-116.804	-149.858	-25.6652	-143.024	-125.2	-16.1205	-155.856	-157.176	-58.4034	-104.751	-141.985	-56.3364	-130.169	-125.957	-54.0939	-146.874	-187.583	-43.9442	-62.0895	-193.182	-51.3018	-28.0156	-194.613	-14.398	-38.6056	
36	0.3	-161.253	17.9756	-20.7818	-130.302	29.0945	-40.1095	-105.632	37.1572	-59.1235	-84.9042	37.8978	-81.9736	-161.91	18.4306	-102.775	-134.729	23.8666	-114.822	-102.788	18.6261	-109.807	-173.425	-4.8768	-116.472	-152.489	5.09236	-141.829	-120.043	6.51033	-156.755	-168.617	-31.8362	-114.076	-153.167	-25.6097	-139.042	-122.919	-13.1568	-156.906	-158.556	-54.7192	-104.307	-145	-53.4073	-128.763	-126.271	-52.3251	-149.565	-186.216	-45.3065	-58.4144	-193.63	-49.4474	-28.5453	-194.316	-13.4852	-38.3514	
37	0.308333	-158.123	15.1816	-22.3958	-127.063	27.1775	-41.0082	-102.361	34.3325	-58.3969	-83.0723	33.5141	-82.0507	-156.241	20.4619	-103.576	-127.762	24.3386	-112.822	-97.7075	19.582	-104.931	-172.306	-5.46116	-114.55	-150.193	3.69534	-142.181	-118.82	5.74765	-155.927	-168.818	-31.7619	-114.602	-151.364	-21.7212	-142.074	-122.037	-16.9449	-158.626	-161.169	-56.6009	-99.3906	-147.277	-56.3561	-128.083	-133.306	-48.9198	-148.058	-186.978	-39.8961	-55.6651	-193.354	-52.0866	-27.838	-194.132	-8.39742	-38.5305	
38	0.316667	-156.923	12.7976	-21.7084	-123.214	27.4132	-36.2879	-97.897	35.3417	-58.2024	-82.1489	28.181	-78.7304	-157.911	22.421	-99.3512	-125.028	27.9228	-110.311	-95.946	15.8745	-105.649	-172.26	1.6484	-113.53	-148.852	6.03345	-142.522	-114.871	7.35415	-157.435	-169.359	-25.5265	-116.241	-152.914	-21.5447	-141.773	-125.749	-15.2429	-157.163	-161.905	-52.8719	-103.774	-149.122	-55.7331	-129.732	-129.87	-50.4147	-153.383	-185.728	-41.594	-57.7159	-193.622	-45.6611	-27.9679	-193.941	-7.16369	-37.0479	
39	0.325	-157.067	12.0293	-21.6621	-126.144	23.0721	-35.4421	-97.5887	35.1927	-59.239	-80.4839	30.6251	-83.7369	-154.658	22.9828	-102.7	-129.156	26.8053	-112.262	-95.243	17.3588	-106.219	-171.452	-1.85342	-118.254	-147.681	5.84352	-143.846	-119.17	6.20549	-156.656	-169.676	-25.0281	-115.577	-151.565	-22.3774	-142.288	-123.231	-17.063	-159.193	-161.949	-54.1478	-106.192	-148.177	-54.5024	-131.525	-128.337	-49.1914	-151.958	-188.502	-38.4033	-58.0985	-192.856	-48.5614	-28.7471	-192.801	-7.27535	-34.865	
